PathFileType	4	(X/Y/Z)	s02c0102.trc
DataRate	CameraRate	NumFrames	NumMarkers	Units	OrigDataRate	OrigDataStartFrame	OrigNumFrames
200	200	4	51	mm	200	0	2000
Frame#	Time	racr			lacr			c7			jug			rlel			rdr			llel			ldr			s2			lic			ric			lasi			rasi			rpsi			lpsi			rgt			lgt			rth1			rth2			rth3			rth4			rlfc			rmfc			rsh1			rsh2			rsh3			rsh4			rlmal			rmmal			rcal			rtoe			rmt5			rmt1			lth1			lth2			lth4			lth3			llfc			lmfc			lsh1			lsh2			lsh3			lsh4			llmal			lmmal			lcal			ltoe			lmt5			SBIKE			LBIKE			RBIKE			
		X1	Y1	Z1	X2	Y2	Z2	X3	Y3	Z3	X4	Y4	Z4	X5	Y5	Z5	X6	Y6	Z6	X7	Y7	Z7	X8	Y8	Z8	X9	Y9	Z9	X10	Y10	Z10	X11	Y11	Z11	X12	Y12	Z12	X13	Y13	Z13	X14	Y14	Z14	X15	Y15	Z15	X16	Y16	Z16	X17	Y17	Z17	X18	Y18	Z18	X19	Y19	Z19	X20	Y20	Z20	X21	Y21	Z21	X22	Y22	Z22	X23	Y23	Z23	X24	Y24	Z24	X25	Y25	Z25	X26	Y26	Z26	X27	Y27	Z27	X28	Y28	Z28	X29	Y29	Z29	X30	Y30	Z30	X31	Y31	Z31	X32	Y32	Z32	X33	Y33	Z33	X34	Y34	Z34	X35	Y35	Z35	X36	Y36	Z36	X37	Y37	Z37	X38	Y38	Z38	X39	Y39	Z39	X40	Y40	Z40	X41	Y41	Z41	X42	Y42	Z42	X43	Y43	Z43	X44	Y44	Z44	X45	Y45	Z45	X46	Y46	Z46	X47	Y47	Z47	X48	Y48	Z48	X49	Y49	Z49	X50	Y50	Z50	X51	Y51	Z51	
0	0.0000	503.674424	1252.039613	-125.861389	504.590573	1251.680577	-493.196463	538.693615	1287.723912	-312.059294	470.380552	1168.070143	-307.331338	566.063046	993.031566	-84.688829	726.057311	845.167914	-135.481579	530.593361	983.001157	-552.160584	709.949786	839.052460	-493.785531	10.838937	1108.437984	-319.984398	154.982437	1098.851706	-459.409285	142.299582	1103.790759	-178.711661	195.478425	1058.467860	-437.660352	198.220794	1077.712971	-207.112304	40.778469	1152.015198	-278.209164	51.279150	1163.818004	-360.805232	114.026238	1035.413531	-132.224812	87.469241	1010.219681	-497.907467	197.285640	1015.057985	-136.041609	283.614806	1009.144582	-148.374194	358.358074	971.774582	-126.095848	291.107521	1031.412504	-178.067319	482.121672	890.111841	-160.330523	474.159962	867.595843	-272.052447	463.063438	780.465386	-140.540520	444.732084	695.336568	-156.944918	391.128288	626.279594	-148.584559	456.508600	689.719427	-194.296025	332.381297	522.465952	-150.173853	337.176030	541.540871	-230.987493	252.790321	478.941963	-188.657074	536.419791	448.268831	-199.306619	430.317189	440.186765	-136.042068	452.356854	451.659832	-244.971300	187.866969	903.885782	-514.123217	252.810737	846.952363	-510.759785	280.351401	864.576446	-493.720279	279.667388	761.626163	-510.109191	330.494660	674.783651	-485.335902	331.730695	646.305454	-383.611738	285.108426	580.943780	-505.845003	256.510080	500.991270	-488.412263	189.551770	440.795920	-492.958297	272.790338	494.007492	-452.248895	117.572809	365.173437	-477.126635	133.825718	355.242302	-400.623731	39.055279	354.909403	-437.902019	267.969894	181.941654	-441.432404	167.865779	222.290648	-501.842387	-165.490443	857.694705	-315.623693	33.181746	82.190699	-515.381036	33.527163	81.563550	-115.100369	
1	0.0050	503.683973	1252.013764	-125.843359	504.576390	1251.675520	-493.202710	538.686556	1287.749138	-312.078827	470.364115	1168.097894	-307.355544	566.062870	993.014485	-84.665969	726.057604	845.158197	-135.504817	530.564892	982.993198	-552.069085	709.938460	839.067500	-493.775246	10.862451	1108.446511	-319.971971	155.000300	1098.850098	-459.411740	142.344044	1103.804642	-178.730126	195.480404	1058.443199	-437.675299	198.259178	1077.720806	-207.153207	40.833140	1152.002243	-278.225628	51.315663	1163.790849	-360.811902	114.106247	1035.384197	-132.258305	87.480782	1010.229534	-497.933313	197.343606	1015.009341	-136.048767	283.646220	1009.068122	-148.328555	358.380334	971.711917	-126.071909	291.139817	1031.352521	-178.029364	482.130199	890.048687	-160.306640	474.183726	867.539685	-272.089439	463.074437	780.431801	-140.542375	444.717822	695.277357	-156.967496	391.086760	626.228212	-148.590707	456.469171	689.619702	-194.302486	332.305053	522.430085	-150.171249	337.099748	541.501335	-231.000300	252.752947	478.860328	-188.667947	536.366505	448.324001	-199.307368	430.285961	440.208179	-136.046853	452.299840	451.670170	-244.939488	187.875871	903.840182	-514.102124	252.790097	846.910211	-510.757060	280.341310	864.530866	-493.696799	279.658586	761.603691	-510.110516	330.439887	674.742553	-485.316663	331.696924	646.243061	-383.642579	285.039214	580.916684	-505.844500	256.552745	500.801037	-488.516072	189.490960	440.740104	-492.965498	272.666032	494.050512	-452.122930	117.515376	365.142022	-477.117221	133.708981	355.273040	-400.604851	38.991890	354.854694	-437.897395	267.986907	181.984512	-441.449234	167.870030	222.285439	-501.848513	-165.281101	856.883629	-318.171795	33.213897	82.132014	-515.463644	33.532676	81.521721	-115.098134	
2	0.0100	503.692716	1252.009079	-125.848895	504.574230	1251.667745	-493.212759	538.710654	1287.770306	-312.087508	470.383082	1168.147679	-307.386916	566.081086	993.016649	-84.626305	726.057707	845.160314	-135.485280	530.537507	982.997124	-552.015845	709.939536	839.068088	-493.777915	10.877982	1108.466332	-319.966500	154.996575	1098.872174	-459.399412	142.389205	1103.797618	-178.752497	195.482376	1058.454996	-437.694948	198.271464	1077.733136	-207.167620	40.869279	1151.995375	-278.229353	51.363848	1163.764191	-360.773841	114.124159	1035.392641	-132.255848	87.459709	1010.228825	-497.930567	197.359299	1014.958876	-136.040212	283.634052	1008.902736	-148.457016	358.386216	971.632356	-126.061287	291.175811	1031.294402	-178.016344	482.130524	889.963752	-160.310797	474.178285	867.470314	-272.115393	463.051921	780.344992	-140.551773	444.691969	695.205733	-156.963808	391.041171	626.176370	-148.607972	456.431805	689.568058	-194.310757	332.050825	522.021526	-150.358996	337.035906	541.469996	-231.018164	252.685055	478.794944	-188.658908	536.330133	448.396877	-199.314619	430.241745	440.222250	-136.039306	452.261130	451.706500	-244.948716	187.878428	903.839504	-514.102903	252.789017	846.896803	-510.718331	280.312011	864.517407	-493.664273	279.641989	761.590177	-510.091676	330.391485	674.730284	-485.316734	331.630538	646.198285	-383.654342	284.985492	580.894977	-505.841974	256.498138	500.777316	-488.520755	189.472057	440.695188	-492.968441	272.611788	494.014765	-452.120618	117.496525	365.112675	-477.101374	133.697829	355.238819	-400.598824	38.981911	354.805644	-437.887469	268.003822	181.994026	-441.459284	167.869637	222.252502	-501.847745	-165.313692	857.521011	-316.305223	33.219936	82.130661	-515.465880	33.534149	81.540603	-115.097305	
3	0.0150	503.102756	1252.578941	-124.827076	504.563350	1251.843192	-493.252566	538.866624	1287.664747	-312.098215	470.383784	1168.146093	-307.386817	565.636411	993.484849	-84.059603	726.087710	844.872769	-135.660673	530.572759	982.868689	-552.010606	709.857510	839.681244	-496.176193	10.645886	1108.831216	-319.514125	155.152007	1098.783898	-459.445296	142.327337	1103.467587	-178.528899	195.475314	1058.451353	-437.692721	198.320534	1077.752175	-207.226225	40.984702	1151.933115	-278.142695	52.261684	1163.320528	-361.260530	114.147630	1035.395352	-132.281872	87.452878	1010.263991	-497.922168	197.382079	1014.926344	-136.032889	283.904615	1009.583781	-147.743200	358.393279	971.573199	-126.062864	291.226662	1031.267252	-177.993286	482.734994	889.697873	-160.900575	474.155398	867.410293	-272.111004	463.652817	779.662385	-141.531420	443.621155	693.931093	-156.641880	391.199811	625.992616	-148.663412	456.454682	689.252363	-194.444080	331.886439	522.404723	-150.102440	336.829279	541.247480	-231.466467	252.140003	478.961965	-188.386600	536.271079	448.487780	-199.304800	430.553166	440.065633	-136.170160	452.328640	451.691519	-245.166259	187.868620	903.850265	-514.078923	252.895115	846.539763	-510.505758	280.262168	865.024104	-494.022262	279.620244	761.514390	-510.111244	330.526354	674.541862	-485.433814	331.563843	646.188476	-383.652266	284.945395	580.882072	-505.837867	256.744156	500.747147	-488.937054	189.364376	440.846924	-493.073434	272.370725	494.169174	-451.602247	117.513213	365.081888	-477.108061	133.715469	355.216559	-400.593047	39.005981	354.774246	-437.886858	268.022662	181.943213	-441.450256	167.891129	222.225625	-501.839337	-165.287999	857.595348	-315.986002	33.209598	82.133239	-515.455866	33.539300	81.522806	-115.102524	
